<svg width="1334" height="1201" viewBox="0 0 1334 1201" fill="none" xmlns="http://www.w3.org/2000/svg">
<path d="M343.857 1179.65C315.62 1173.55 -23.6619 1118.53 1.31287 712.742C26.2862 306.954 57.6356 184.921 189.544 140.274C321.45 95.6277 642.094 -115.639 893.705 85.2424C1145.32 286.12 1416.83 466.288 1309.08 787.032C1201.33 1107.78 1183.7 1214.76 902.589 1198.4C780.073 1191.27 683.723 1192.31 602.889 1193.35C498.252 1194.69 419.61 1196.04 343.857 1179.65Z" fill="#F9FBFD"/>
<path d="M825.272 576.509C813.136 708.718 695.703 806.402 563.496 794.266C431.29 782.132 333.605 664.7 345.739 532.492C357.875 400.284 475.309 302.598 607.515 314.734C739.722 326.869 837.408 444.301 825.272 576.509ZM1028.17 1096.92C1034.69 1091.49 1038.4 1083.93 1039.12 1076.1C1039.84 1068.27 1037.57 1060.17 1032.14 1053.64L799.772 774.304C850.384 725.044 884.4 658.254 891.346 582.574C906.827 413.934 782.22 264.14 613.58 248.66C444.94 233.18 295.146 357.786 279.666 526.426C264.186 695.066 388.791 844.861 557.431 860.341C622.15 866.282 684.079 851.573 736.721 821.681L751.251 812.072L984.897 1092.95C995.749 1105.99 1015.12 1107.77 1028.17 1096.92Z" fill="#EFEFEF"/>
<path d="M314.835 408.889C302.506 434.967 291.55 461.923 283.815 489.743C276.667 515.451 274.317 541.598 275.406 568.224C277.457 618.32 292.089 667.612 317.526 710.804C368.458 797.29 460.061 854.493 560.15 862.125C623.235 866.934 692.278 852.875 745.538 817.653C748.237 815.868 741.821 816.504 740.571 817.332C691.17 850.001 627.633 863.248 569.069 859.69C518.947 856.645 469.899 841.141 427.21 814.69C345.869 764.29 291.299 676.509 282.801 581.123C280.227 552.241 281.345 522.963 288.541 494.8C296.209 464.791 307.981 435.764 321.199 407.804C321.731 406.679 315.645 407.176 314.835 408.889Z" fill="#D33C67"/>
<path d="M754.672 820.944C784.916 857.302 815.161 893.661 845.406 930.02C887.126 980.172 928.846 1030.33 970.565 1080.48C974.278 1084.94 977.898 1089.51 981.718 1093.89C997.583 1112.05 1027.49 1107.48 1039 1086.87C1039.55 1085.89 1033.58 1086.27 1032.64 1087.95C1021.86 1107.25 999.508 1105.61 986.51 1090.12C982.358 1085.18 978.25 1080.2 974.121 1075.23C956.866 1054.49 939.61 1033.74 922.354 1013C878.856 960.709 835.357 908.418 791.858 856.126C781.481 843.65 771.104 831.176 760.725 818.7C759.669 817.431 753.58 819.632 754.672 820.944Z" fill="#D33C67"/>
<path d="M462.463 349.302C529.379 308.705 613.579 304.28 684.443 337.489C741.002 363.994 785.853 412.617 807.807 471.084C820.53 504.965 825.219 541.353 822.052 577.372C821.964 578.384 828.315 577.669 828.493 575.648C834.39 508.566 811.943 441.425 766.647 391.534C720.626 340.845 654.17 311.968 585.757 312.34C540.517 312.585 496.126 325.545 457.497 348.981C454.762 350.64 461.195 350.072 462.463 349.302Z" fill="#D33C67"/>
<path d="M841.589 553.472C829.453 685.68 712.02 783.365 579.813 771.229C447.608 759.093 349.921 641.661 362.056 509.453C374.193 377.245 491.625 279.56 623.832 291.696C756.038 303.832 853.725 421.264 841.589 553.472ZM1044.49 1073.88C1051.01 1068.45 1054.72 1060.9 1055.43 1053.07C1056.15 1045.23 1053.88 1037.13 1048.46 1030.61L816.089 751.265C866.701 702.005 900.717 635.216 907.664 559.537C923.144 390.897 798.537 241.102 629.897 225.622C461.257 210.142 311.462 334.748 295.982 503.388C280.502 672.029 405.108 821.822 573.749 837.304C638.466 843.244 700.397 828.534 753.037 798.642L767.568 789.033L1001.21 1069.91C1012.06 1082.95 1031.44 1084.73 1044.49 1073.88Z" fill="white"/>
<path d="M1047.14 1074.69C1061.22 1062.15 1062.16 1042.39 1050.38 1027.99C1046.54 1023.29 1042.61 1018.65 1038.73 1013.98C1021.17 992.88 1003.62 971.777 986.066 950.676C941.193 896.732 896.319 842.788 851.446 788.844C840.647 775.862 829.849 762.881 819.05 749.9C818.949 750.625 818.848 751.35 818.746 752.077C868.89 702.946 901.571 637.805 909.979 568.016C917.301 507.25 906.257 445.024 878.298 390.572C851.56 338.498 810.059 294.407 759.584 264.728C707.525 234.117 646.826 219.514 586.545 222.542C527.42 225.513 469.625 245.837 421.47 280.233C373.594 314.431 335.686 362.137 313.726 416.761C290.928 473.468 285.418 536.694 298.221 596.472C310.604 654.282 340.013 708.058 381.766 749.886C423.784 791.982 477.701 821.533 535.909 833.893C607.366 849.066 683.074 838.606 747.536 804.138C755.242 800.018 762.374 795.149 769.657 790.333C767.973 790.356 766.29 790.377 764.606 790.4C794.546 826.392 824.486 862.384 854.426 898.377C897.314 949.933 940.201 1001.49 983.089 1053.05C987.839 1058.76 992.551 1064.51 997.345 1070.18C1009.94 1085.09 1031.14 1087.25 1046.58 1075.18C1050.01 1072.49 1044.75 1070.74 1042.4 1072.58C1028.64 1083.35 1012.49 1078.54 1002.16 1066.12C997.702 1060.76 993.245 1055.4 988.787 1050.04C970.725 1028.33 952.663 1006.62 934.601 984.905C890.423 931.797 846.246 878.689 802.067 825.581C791.554 812.942 781.042 800.305 770.529 787.668C769.337 786.233 766.769 786.88 765.477 787.733C658.509 858.474 514.153 849.924 414.121 770.729C320.937 696.954 278.418 572.673 306.934 457.29C335.157 343.089 430.453 252.991 546.152 231.5C664.125 209.587 786.273 261.961 853.301 361.052C885.826 409.137 904.287 466.358 905.633 524.422C907.194 591.876 886.222 659.056 845.974 713.274C836.138 726.525 825.214 738.909 813.43 750.454C812.866 751.009 812.57 751.962 813.126 752.632C841.322 786.526 869.517 820.421 897.711 854.316C940.115 905.289 982.518 956.264 1024.92 1007.24C1030.74 1014.23 1036.56 1021.23 1042.38 1028.22C1043.38 1029.43 1044.42 1030.62 1045.39 1031.85C1055.55 1044.74 1054.08 1062.16 1041.83 1073.07C1038.92 1075.66 1045.21 1076.41 1047.14 1074.69Z" fill="#D33C67"/>
<path d="M838.341 553.769C828.937 652.053 758.51 736.902 662.697 762.278C565.962 787.898 461.535 747.585 405.537 665.092C349.545 582.608 351.265 470.441 410.322 389.974C469.435 309.433 575.211 273.93 670.834 303.369C764.11 332.084 832.001 418.122 838.803 515.388C839.698 528.176 839.463 541.004 838.341 553.769C838.07 556.857 844.602 555.838 844.837 553.174C853.765 451.62 796.843 352.802 703.861 310.444C611.766 268.489 500.602 289.039 429.062 360.395C356.313 432.957 337.086 547.149 382.951 639.27C428.302 730.362 528.158 784.6 629.314 772.817C728.379 761.28 813.143 688.249 838.173 591.548C841.434 578.953 843.598 566.12 844.837 553.174C845.131 550.093 838.595 551.102 838.341 553.769Z" fill="#D33C67"/>
<path d="M603.711 769.928C525.823 769.929 450.246 730.955 405.537 665.092C349.545 582.608 351.265 470.441 410.322 389.974C410.882 389.213 411.449 388.449 412.017 387.696C425.895 373.288 441.525 360.635 458.515 350.052C459.937 350.016 461.835 349.684 462.463 349.302C499.598 326.774 542.057 315.384 584.603 315.384C618.726 315.384 652.903 322.709 684.443 337.489C741.002 363.995 785.853 412.617 807.807 471.084C820.53 504.965 825.219 541.353 822.053 577.372C822.026 577.68 822.595 577.828 823.405 577.828C823.923 577.828 824.542 577.768 825.166 577.649C822.423 606.058 814.818 632.851 803.25 657.292C771.862 707.863 722.171 746.527 662.697 762.279C643.195 767.443 623.378 769.928 603.711 769.928Z" fill="#FCFCFC"/>
<path d="M803.25 657.292C814.818 632.851 822.423 606.058 825.166 577.649C826.766 577.345 828.403 576.66 828.493 575.648C834.39 508.567 811.943 441.425 766.647 391.535C720.921 341.169 655.01 312.337 587.062 312.337C586.623 312.337 586.195 312.337 585.757 312.34C540.517 312.585 496.126 325.545 457.497 348.981C456.198 349.769 456.969 350.055 458.271 350.055C458.35 350.055 458.431 350.053 458.515 350.052C441.525 360.635 425.895 373.288 412.017 387.696C457.331 327.501 528.974 293.116 602.439 293.116C625.31 293.116 648.347 296.445 670.834 303.369C764.11 332.084 832.001 418.123 838.803 515.388C839.698 528.176 839.463 541.004 838.341 553.769C834.774 591.046 822.427 626.392 803.25 657.292Z" fill="#F7F7F7"/>
<path d="M823.405 577.828C822.596 577.828 822.026 577.68 822.053 577.372C825.22 541.353 820.53 504.965 807.808 471.084C785.853 412.617 741.002 363.994 684.444 337.489C652.904 322.709 618.726 315.384 584.604 315.384C542.057 315.384 499.598 326.774 462.464 349.302C461.836 349.684 459.937 350.016 458.516 350.052C458.432 350.053 458.35 350.054 458.272 350.054C456.969 350.054 456.198 349.769 457.497 348.981C496.126 325.545 540.517 312.585 585.757 312.34C586.196 312.337 586.624 312.337 587.062 312.337C655.01 312.337 720.921 341.169 766.648 391.534C811.944 441.425 834.39 508.566 828.493 575.648C828.404 576.66 826.766 577.345 825.166 577.649C824.542 577.768 823.924 577.828 823.405 577.828Z" fill="#D26181"/>
<path d="M602.002 772.248C594.665 772.248 587.261 771.913 579.813 771.229C447.607 759.093 349.921 641.661 362.055 509.453C373.509 384.693 478.726 290.677 601.642 290.677C608.981 290.677 616.383 291.012 623.831 291.696C756.038 303.832 853.725 421.264 841.589 553.472C830.137 678.232 724.919 772.249 602.002 772.248ZM412.017 387.696C411.449 388.449 410.882 389.213 410.322 389.974C351.265 470.441 349.545 582.608 405.537 665.092C450.246 730.954 525.823 769.929 603.711 769.928C623.378 769.928 643.195 767.442 662.697 762.278C722.171 746.526 771.862 707.862 803.25 657.292C822.427 626.392 834.774 591.046 838.341 553.769C839.463 541.004 839.698 528.176 838.803 515.388C832.001 418.122 764.11 332.084 670.834 303.369C648.347 296.445 625.31 293.116 602.439 293.116C528.974 293.116 457.331 327.501 412.017 387.696Z" fill="#D26181"/>
<path d="M625.038 289.699C524.563 280.867 425.784 335.756 381.814 426.909C337.318 519.152 357.048 632.193 429.834 704.117C502.307 775.732 615.128 794.225 706.923 750.177C798.547 706.213 854.868 607.773 844.622 506.388C834.49 406.132 760.018 320.501 662.364 296.02C650.104 292.945 637.616 290.903 625.038 289.699C622.331 289.44 618.284 293.279 622.624 293.693C720.8 303.087 804.988 373.992 830.963 469.187C857.194 565.317 819.279 670.448 737.663 727.592C655.347 785.227 542.934 783.441 462.06 723.963C382.315 665.315 346.43 560.681 373.384 465.44C400.216 370.633 486.076 300.12 584.496 293.236C597.204 292.346 609.939 292.579 622.624 293.693C625.328 293.931 629.382 290.081 625.038 289.699Z" fill="#D33C67"/>
<path d="M686.623 594.826C673.419 578.718 653.251 566.868 633.585 560.864C600.523 550.77 564.033 557.288 535.29 576.028C528.606 580.386 521.865 585.414 516.498 591.381C513.842 594.332 520.038 594.95 521.807 592.985C534.525 578.848 553.566 569.036 571.645 564.172C604.365 555.368 638.601 562.996 665.381 583.369C670.87 587.545 676.306 592.193 680.698 597.552C682.387 599.612 688.55 597.177 686.623 594.826Z" fill="#D33C67"/>
<path d="M529.238 497.498C529.27 490.837 523.895 485.41 517.234 485.378C510.573 485.346 505.147 490.721 505.115 497.382C505.083 504.044 510.457 509.469 517.118 509.501C523.779 509.533 529.206 504.16 529.238 497.498Z" fill="#D33C67"/>
<path d="M694.699 498.406C694.731 491.745 689.357 486.32 682.695 486.288C676.034 486.256 670.609 491.629 670.577 498.29C670.545 504.952 675.919 510.378 682.581 510.41C689.242 510.442 694.667 505.068 694.699 498.406Z" fill="#D33C67"/>
<path d="M491.848 551.771C491.987 564.64 484.275 575.159 474.623 575.264C464.97 575.368 457.032 565.018 456.892 552.149C456.754 539.278 464.466 528.76 474.118 528.656C483.771 528.552 491.708 538.9 491.848 551.771Z" fill="#D9D9D9"/>
<path d="M742.378 549.058C742.518 561.928 734.806 572.446 725.153 572.55C715.501 572.656 707.562 562.306 707.423 549.436C707.283 536.566 714.995 526.048 724.649 525.944C734.301 525.838 742.239 536.188 742.378 549.058Z" fill="#D9D9D9"/>
</svg>
