<svg width="361" height="325" viewBox="0 0 361 325" fill="none" xmlns="http://www.w3.org/2000/svg">
<g clip-path="url(#clip0_268_120)">
<path d="M93.0528 319.489C85.4114 317.837 -6.40326 302.935 0.35528 193.034C7.11343 83.1334 15.597 50.0828 51.2934 37.9909C86.9891 25.8992 173.76 -31.3189 241.85 23.0865C309.94 77.4909 383.415 126.286 354.256 213.155C325.098 300.024 320.327 328.998 244.254 324.567C211.099 322.636 185.026 322.917 163.151 323.199C134.834 323.562 113.553 323.928 93.0528 319.489Z" fill="#F9FBFD"/>
<path d="M223.331 156.138C220.047 191.944 188.267 218.401 152.49 215.114C116.713 211.827 90.2785 180.023 93.5621 144.217C96.8463 108.41 128.626 81.9536 164.403 85.2404C200.18 88.527 226.615 120.331 223.331 156.138ZM278.238 297.082C280.002 295.612 281.006 293.564 281.201 291.444C281.396 289.323 280.782 287.129 279.312 285.361L216.43 209.707C230.126 196.366 239.332 178.277 241.211 157.78C245.401 112.107 211.68 71.5379 166.044 67.3454C120.407 63.1529 79.8709 96.9004 75.6818 142.574C71.4927 188.247 105.213 228.817 150.849 233.009C168.363 234.618 185.122 230.634 199.368 222.539L203.3 219.936L266.527 296.007C269.464 299.539 274.706 300.021 278.238 297.082Z" fill="#EFEFEF"/>
<path d="M85.1989 110.741C81.8625 117.804 78.8976 125.104 76.8044 132.639C74.87 139.601 74.2341 146.683 74.5288 153.894C75.0838 167.462 79.0435 180.812 85.9271 192.509C99.71 215.933 124.499 231.425 151.585 233.492C168.656 234.795 187.341 230.987 201.753 221.448C202.484 220.964 200.748 221.136 200.409 221.361C187.041 230.209 169.847 233.796 153.998 232.833C140.435 232.008 127.161 227.809 115.609 220.645C93.5971 206.995 78.8297 183.221 76.53 157.387C75.8334 149.565 76.136 141.636 78.0833 134.008C80.1584 125.881 83.3441 118.019 86.9211 110.447C87.065 110.142 85.4181 110.277 85.1989 110.741Z" fill="#2C98A0"/>
<path d="M204.225 222.339C212.41 232.186 220.594 242.033 228.779 251.88C240.069 265.463 251.359 279.048 262.649 292.63C263.654 293.838 264.633 295.076 265.667 296.262C269.961 301.18 278.054 299.943 281.169 294.361C281.317 294.095 279.702 294.198 279.447 294.653C276.53 299.88 270.481 299.436 266.964 295.241C265.84 293.903 264.729 292.554 263.611 291.208C258.942 285.591 254.272 279.971 249.602 274.354C237.831 260.192 226.06 246.03 214.288 231.867C211.48 228.489 208.672 225.11 205.863 221.731C205.578 221.388 203.93 221.984 204.225 222.339Z" fill="#2C98A0"/>
<path d="M125.149 94.6026C143.258 83.6075 166.044 82.4091 185.22 91.4032C200.526 98.5817 212.663 111.75 218.605 127.585C222.048 136.761 223.316 146.616 222.459 156.372C222.436 156.646 224.154 156.452 224.202 155.905C225.798 137.737 219.724 119.553 207.466 106.04C195.012 92.3121 177.028 84.4913 158.515 84.592C146.272 84.6584 134.259 88.1684 123.805 94.5156C123.065 94.9649 124.806 94.8111 125.149 94.6026Z" fill="#2C98A0"/>
<path d="M227.746 149.899C224.462 185.705 192.683 212.161 156.906 208.874C121.129 205.588 94.6937 173.783 97.9777 137.977C101.262 102.17 133.041 75.7141 168.818 79.0009C204.595 82.2878 231.031 114.092 227.746 149.899ZM282.654 290.842C284.419 289.372 285.423 287.327 285.615 285.206C285.81 283.083 285.195 280.889 283.729 279.123L220.846 203.468C234.542 190.126 243.747 172.038 245.627 151.541C249.816 105.868 216.096 65.2984 170.459 61.1059C124.823 56.9134 84.2862 90.6609 80.0971 136.334C75.9079 182.008 109.628 222.577 155.265 226.77C172.778 228.379 189.538 224.395 203.783 216.299L207.715 213.696L270.942 289.767C273.878 293.299 279.123 293.781 282.654 290.842Z" fill="white"/>
<path d="M283.371 291.062C287.182 287.666 287.436 282.314 284.248 278.414C283.209 277.141 282.146 275.884 281.096 274.619C276.344 268.905 271.594 263.19 266.844 257.475C254.701 242.865 242.557 228.255 230.414 213.645C227.492 210.129 224.569 206.614 221.647 203.098C221.62 203.294 221.592 203.491 221.565 203.687C235.134 190.381 243.978 172.739 246.254 153.838C248.235 137.38 245.246 120.527 237.68 105.78C230.445 91.6764 219.214 79.7348 205.554 71.6971C191.467 63.4066 175.041 59.4516 158.728 60.2717C142.728 61.0763 127.087 66.5807 114.056 75.8963C101.1 85.1583 90.8415 98.0787 84.8988 112.873C78.7294 128.231 77.2383 145.355 80.703 161.544C84.054 177.201 92.0125 191.766 103.311 203.094C114.682 214.495 129.273 222.498 145.025 225.846C164.362 229.955 184.85 227.122 202.294 217.787C204.38 216.671 206.31 215.353 208.28 214.048C207.825 214.055 207.369 214.06 206.914 214.067C215.016 223.814 223.118 233.562 231.22 243.31C242.826 257.273 254.432 271.237 266.038 285.201C267.324 286.747 268.599 288.305 269.896 289.84C273.305 293.878 279.042 294.463 283.22 291.194C284.148 290.466 282.725 289.992 282.089 290.49C278.365 293.407 273.995 292.104 271.199 288.741C269.993 287.289 268.787 285.837 267.58 284.386C262.692 278.506 257.805 272.626 252.917 266.745C240.962 252.362 229.007 237.978 217.051 223.595C214.206 220.172 211.361 216.749 208.516 213.327C208.194 212.938 207.499 213.113 207.149 213.344C178.202 232.503 139.137 230.188 112.067 208.739C86.8502 188.758 75.344 155.099 83.0608 123.849C90.6984 92.9198 116.487 68.5183 147.797 62.6978C179.722 56.763 212.777 70.9477 230.916 97.7848C239.718 110.808 244.713 126.305 245.078 142.031C245.5 160.3 239.825 178.494 228.933 193.178C226.271 196.767 223.315 200.121 220.126 203.248C219.973 203.398 219.893 203.656 220.044 203.838C227.674 213.017 235.304 222.197 242.934 231.377C254.409 245.182 265.884 258.988 277.358 272.794C278.933 274.687 280.508 276.583 282.083 278.476C282.354 278.804 282.635 279.126 282.898 279.459C285.647 282.95 285.249 287.668 281.934 290.623C281.147 291.324 282.849 291.528 283.371 291.062Z" fill="#2C98A0"/>
<path d="M226.867 149.979C224.322 176.598 205.264 199.578 179.336 206.45C153.158 213.389 124.898 202.471 109.744 180.129C94.592 157.79 95.0574 127.411 111.039 105.618C127.036 83.8047 155.661 74.1893 181.537 82.1623C206.779 89.9393 225.152 113.241 226.992 139.584C227.235 143.048 227.171 146.522 226.867 149.979C226.794 150.815 228.562 150.539 228.625 149.818C231.041 122.314 215.637 95.5504 190.475 84.0785C165.553 72.7157 135.47 78.2813 116.11 97.6069C96.4235 117.259 91.2204 148.186 103.632 173.136C115.905 197.806 142.927 212.496 170.302 209.305C197.11 206.18 220.048 186.401 226.822 160.211C227.704 156.8 228.29 153.324 228.625 149.818C228.705 148.983 226.936 149.257 226.867 149.979Z" fill="#2C98A0"/>
<path d="M163.373 208.522C142.295 208.522 121.843 197.967 109.744 180.129C94.5919 157.79 95.0573 127.411 111.039 105.618C111.191 105.412 111.344 105.205 111.498 105.001C115.253 101.099 119.483 97.6717 124.081 94.8058C124.466 94.796 124.979 94.7061 125.149 94.6026C135.198 88.5016 146.688 85.4165 158.202 85.4165C167.436 85.4165 176.685 87.4004 185.22 91.4033C200.526 98.582 212.663 111.75 218.604 127.585C222.047 136.761 223.316 146.616 222.459 156.372C222.452 156.455 222.606 156.495 222.825 156.495C222.966 156.495 223.133 156.479 223.302 156.447C222.56 164.141 220.502 171.397 217.371 178.017C208.877 191.713 195.43 202.184 179.335 206.451C174.058 207.849 168.695 208.522 163.373 208.522Z" fill="#FCFCFC"/>
<path d="M217.371 178.016C220.502 171.397 222.56 164.141 223.302 156.447C223.735 156.364 224.178 156.179 224.202 155.905C225.798 137.737 219.724 119.553 207.466 106.041C195.092 92.3999 177.255 84.5912 158.868 84.5912C158.749 84.5912 158.633 84.5912 158.514 84.592C146.272 84.6584 134.259 88.1683 123.805 94.5156C123.454 94.729 123.662 94.8065 124.015 94.8065C124.036 94.8065 124.058 94.8059 124.081 94.8057C119.483 97.6719 115.253 101.099 111.498 105.001C123.76 88.6981 143.148 79.3855 163.029 79.3855C169.218 79.3855 175.452 80.2871 181.537 82.1623C206.779 89.9393 225.152 113.242 226.992 139.584C227.235 143.048 227.171 146.522 226.867 149.979C225.902 160.075 222.561 169.648 217.371 178.016Z" fill="#F7F7F7"/>
<path d="M222.825 156.495C222.606 156.495 222.452 156.455 222.46 156.372C223.317 146.616 222.047 136.761 218.605 127.585C212.663 111.75 200.526 98.5817 185.22 91.4033C176.685 87.4004 167.436 85.4165 158.202 85.4165C146.688 85.4165 135.198 88.5013 125.149 94.6027C124.979 94.7061 124.466 94.796 124.081 94.8058C124.058 94.8061 124.036 94.8063 124.015 94.8063C123.662 94.8063 123.454 94.7291 123.805 94.5157C134.259 88.1685 146.272 84.6585 158.514 84.5921C158.633 84.5913 158.749 84.5913 158.867 84.5913C177.255 84.5913 195.092 92.4 207.466 106.04C219.724 119.553 225.798 137.737 224.202 155.905C224.178 156.179 223.735 156.364 223.302 156.447C223.133 156.479 222.966 156.495 222.825 156.495Z" fill="#1D5C63"/>
<path d="M162.91 209.151C160.925 209.151 158.921 209.06 156.906 208.875C121.129 205.588 94.6937 173.783 97.9773 137.977C101.077 104.188 129.55 78.7251 162.813 78.7251C164.799 78.7251 166.802 78.8158 168.818 79.0011C204.595 82.2879 231.03 114.092 227.746 149.899C224.647 183.688 196.174 209.151 162.91 209.151ZM111.498 105.001C111.344 105.205 111.191 105.412 111.039 105.618C95.0574 127.411 94.5919 157.79 109.744 180.129C121.843 197.967 142.295 208.523 163.373 208.522C168.695 208.522 174.058 207.849 179.335 206.45C195.43 202.184 208.877 191.713 217.371 178.017C222.561 169.648 225.902 160.075 226.867 149.979C227.171 146.522 227.235 143.048 226.992 139.584C225.152 113.241 206.779 89.9395 181.537 82.1625C175.452 80.2873 169.218 79.3857 163.029 79.3857C143.148 79.3857 123.76 88.6983 111.498 105.001Z" fill="#2C98A0"/>
<path d="M169.144 78.4602C141.954 76.0682 115.223 90.9339 103.324 115.621C91.2831 140.604 96.6224 171.219 116.319 190.698C135.932 210.094 166.463 215.103 191.304 203.173C216.098 191.266 231.34 164.605 228.567 137.147C225.825 109.994 205.672 86.8024 179.245 80.1721C175.928 79.3393 172.548 78.7863 169.144 78.4602C168.412 78.39 167.317 79.4298 168.491 79.5419C195.059 82.0861 217.842 101.29 224.871 127.072C231.969 153.107 221.709 181.58 199.622 197.056C177.346 212.666 146.926 212.182 125.04 196.073C103.46 180.19 93.749 151.851 101.043 126.057C108.304 100.38 131.539 81.2825 158.173 79.4181C161.612 79.1771 165.058 79.2402 168.491 79.5419C169.223 79.6063 170.32 78.5636 169.144 78.4602Z" fill="#2C98A0"/>
<path d="M185.81 161.099C182.237 156.736 176.779 153.527 171.457 151.901C162.51 149.167 152.636 150.932 144.857 156.008C143.049 157.188 141.224 158.55 139.772 160.166C139.053 160.965 140.73 161.132 141.209 160.6C144.65 156.771 149.803 154.114 154.696 152.797C163.55 150.412 172.815 152.478 180.062 157.996C181.547 159.127 183.018 160.386 184.207 161.837C184.664 162.395 186.332 161.736 185.81 161.099Z" fill="#2C98A0"/>
<path d="M143.219 134.739C143.228 132.935 141.774 131.465 139.971 131.457C138.168 131.448 136.7 132.904 136.691 134.708C136.683 136.512 138.137 137.981 139.94 137.99C141.742 137.999 143.211 136.543 143.219 134.739Z" fill="#2C98A0"/>
<path d="M187.996 134.985C188.004 133.181 186.55 131.712 184.747 131.703C182.945 131.694 181.477 133.149 181.468 134.953C181.459 136.758 182.914 138.227 184.717 138.236C186.519 138.245 187.987 136.789 187.996 134.985Z" fill="#2C98A0"/>
<path d="M133.101 149.438C133.139 152.923 131.052 155.772 128.44 155.801C125.828 155.829 123.679 153.026 123.642 149.54C123.604 146.054 125.691 143.206 128.303 143.178C130.915 143.15 133.063 145.952 133.101 149.438Z" fill="#D9D9D9"/>
<path d="M200.898 148.703C200.936 152.189 198.849 155.037 196.237 155.066C193.625 155.094 191.477 152.291 191.439 148.806C191.401 145.32 193.488 142.471 196.101 142.443C198.713 142.414 200.861 145.218 200.898 148.703Z" fill="#D9D9D9"/>
</g>
<defs>
<clipPath id="clip0_268_120">
<rect width="361" height="325" fill="white"/>
</clipPath>
</defs>
</svg>
