<svg width="38" height="38" viewBox="0 0 38 38" fill="none" xmlns="http://www.w3.org/2000/svg">
<path d="M19 0C8.5063 0 9.50703e-08 8.5063 9.50703e-08 19C-0.000180072 20.8004 0.255716 22.5917 0.76 24.32V36.48C0.76 36.6816 0.840071 36.8749 0.982599 37.0174C1.12513 37.1599 1.31844 37.24 1.52 37.24H13.68C15.4083 37.7443 17.1996 38.0002 19 38C23.2036 38.015 27.2905 36.618 30.6052 34.0328C30.772 33.9194 30.8869 33.7444 30.9247 33.5463C30.9625 33.3482 30.92 33.1432 30.8066 32.9764C30.6932 32.8096 30.5182 32.6947 30.3201 32.6569C30.122 32.6191 29.917 32.6616 29.7502 32.775C29.7243 32.7923 29.6995 32.8114 29.6761 32.832C27.484 34.5226 24.9205 35.6664 22.1982 36.1686C19.4759 36.6708 16.673 36.5171 14.022 35.72C13.9489 35.7096 13.8747 35.7096 13.8016 35.72H2.28V24.206C2.29045 24.1329 2.29045 24.0587 2.28 23.9856C1.78391 22.3699 1.52785 20.6901 1.52 19C1.52 14.364 3.36164 9.91791 6.63977 6.63977C9.91791 3.36164 14.364 1.52 19 1.52C23.636 1.52 28.0821 3.36164 31.3602 6.63977C34.6384 9.91791 36.48 14.364 36.48 19C36.4869 21.6043 35.905 24.1764 34.7776 26.524C34.7073 26.7029 34.7075 26.9017 34.7779 27.0805C34.8484 27.2593 34.984 27.4047 35.1574 27.4876C35.3308 27.5704 35.5291 27.5845 35.7125 27.527C35.8958 27.4695 36.0506 27.3446 36.1456 27.1776C37.3743 24.6271 38.0083 21.831 38 19C38 8.5063 29.4937 0 19 0Z" fill="white"/>
<path d="M22.489 6.83998C22.0598 6.38184 21.5445 6.01275 20.9726 5.75378C20.4006 5.4948 19.7833 5.35102 19.1558 5.33064C18.5283 5.31027 17.903 5.41369 17.3155 5.63501C16.7279 5.85633 16.1898 6.19121 15.7317 6.62053C15.657 6.69083 15.5838 6.76398 15.5122 6.83998C15.1236 7.25104 14.827 7.7402 14.6422 8.27488C14.4574 8.80955 14.3887 9.37747 14.4406 9.94078L15.497 20.5808C15.6312 21.4072 16.0551 22.159 16.6929 22.7015C17.3306 23.244 18.1406 23.5419 18.9778 23.5419C19.8151 23.5419 20.6251 23.244 21.2628 22.7015C21.9005 22.159 22.3244 21.4072 22.4586 20.5808L23.515 9.94078C23.5728 9.38078 23.5112 8.81489 23.3344 8.28042C23.1575 7.74594 22.8694 7.25501 22.489 6.83998ZM20.969 20.4592C20.8717 20.9089 20.6233 21.3117 20.2651 21.6006C19.907 21.8895 19.4608 22.047 19.0006 22.047C18.5405 22.047 18.0943 21.8895 17.7361 21.6006C17.378 21.3117 17.1296 20.9089 17.0322 20.4592L15.9606 9.78498C15.9254 9.43312 15.9666 9.0778 16.0814 8.74332C16.1961 8.40884 16.3818 8.10309 16.6256 7.84698C17.2244 7.22028 18.0475 6.85702 18.914 6.83707C19.7805 6.81711 20.6195 7.1421 21.2464 7.74058C21.2825 7.77478 21.3177 7.81088 21.3528 7.84698C21.6009 8.10103 21.7908 8.40586 21.9095 8.74046C22.0283 9.07505 22.073 9.43142 22.0406 9.78498L20.969 20.4592Z" fill="white"/>
<path d="M18.9992 25.0801C18.2476 25.0801 17.513 25.3029 16.8881 25.7205C16.2631 26.138 15.7761 26.7315 15.4885 27.4259C15.2009 28.1202 15.1256 28.8843 15.2722 29.6214C15.4189 30.3586 15.7808 31.0357 16.3122 31.5671C16.8437 32.0985 17.5207 32.4605 18.2579 32.6071C18.995 32.7537 19.7591 32.6784 20.4534 32.3908C21.1478 32.1032 21.7413 31.6162 22.1588 30.9913C22.5763 30.3663 22.7992 29.6317 22.7992 28.8801C22.7992 27.8723 22.3989 26.9057 21.6862 26.1931C20.9736 25.4804 20.007 25.0801 18.9992 25.0801ZM18.9992 31.1601C18.5483 31.1601 18.1075 31.0264 17.7325 30.7758C17.3576 30.5253 17.0653 30.1692 16.8928 29.7526C16.7202 29.336 16.6751 28.8776 16.763 28.4353C16.851 27.993 17.0682 27.5867 17.387 27.2679C17.7059 26.949 18.1121 26.7319 18.5544 26.6439C18.9967 26.5559 19.4551 26.6011 19.8717 26.7736C20.2883 26.9462 20.6444 27.2384 20.895 27.6134C21.1455 27.9883 21.2792 28.4291 21.2792 28.8801C21.2792 29.4848 21.039 30.0647 20.6114 30.4923C20.1838 30.9199 19.6039 31.1601 18.9992 31.1601Z" fill="white"/>
</svg>
