<svg width="88" height="88" viewBox="0 0 88 88" fill="none" xmlns="http://www.w3.org/2000/svg">
<path d="M52.1355 8.90317C52.1355 13.3805 48.5059 17.0101 44.0286 17.0101C39.5512 17.0101 35.9217 13.3805 35.9217 8.90317C35.9217 4.42579 39.5512 0.796265 44.0286 0.796265C48.5059 0.796265 52.1355 4.42579 52.1355 8.90317ZM44.0286 71.0561C39.5512 71.0561 35.9217 74.6856 35.9217 79.163C35.9217 83.6404 39.5512 87.2699 44.0286 87.2699C48.5059 87.2699 52.1355 83.6404 52.1355 79.163C52.1355 74.6856 48.5059 71.0561 44.0286 71.0561ZM79.1585 35.9262C74.6811 35.9262 71.0516 39.5557 71.0516 44.0331C71.0516 48.5105 74.6811 52.14 79.1585 52.14C83.6358 52.14 87.2654 48.5105 87.2654 44.0331C87.2654 39.5557 83.6358 35.9262 79.1585 35.9262ZM17.0056 44.0331C17.0056 39.5557 13.376 35.9262 8.89865 35.9262C4.42128 35.9262 0.791748 39.5557 0.791748 44.0331C0.791748 48.5105 4.42128 52.14 8.89865 52.14C13.376 52.14 17.0056 48.5105 17.0056 44.0331ZM19.188 60.7667C14.7106 60.7667 11.0811 64.3963 11.0811 68.8736C11.0811 73.351 14.7106 76.9805 19.188 76.9805C23.6654 76.9805 27.2949 73.351 27.2949 68.8736C27.2949 64.3964 23.6652 60.7667 19.188 60.7667ZM68.8691 60.7667C64.3917 60.7667 60.7622 64.3963 60.7622 68.8736C60.7622 73.351 64.3917 76.9805 68.8691 76.9805C73.3465 76.9805 76.976 73.351 76.976 68.8736C76.976 64.3964 73.3465 60.7667 68.8691 60.7667ZM19.188 11.0856C14.7106 11.0856 11.0811 14.7151 11.0811 19.1925C11.0811 23.6699 14.7106 27.2994 19.188 27.2994C23.6654 27.2994 27.2949 23.6699 27.2949 19.1925C27.2949 14.7151 23.6652 11.0856 19.188 11.0856Z" fill="#828282"/>
</svg>
