<svg width="96" height="96" viewBox="0 0 96 96" fill="none" xmlns="http://www.w3.org/2000/svg">
<path d="M67.2 62.4C63.2 62.4 59.8 61 57 58.2C54.2 55.4 52.8 52 52.8 48C52.8 44 54.2 40.6 57 37.8C59.8 35 63.2 33.6 67.2 33.6C71.2 33.6 74.6 35 77.4 37.8C80.2 40.6 81.6 44 81.6 48C81.6 52 80.2 55.4 77.4 58.2C74.6 61 71.2 62.4 67.2 62.4ZM28.8 82.08V86.4H9.6C6.96 86.4 4.6992 85.4608 2.8176 83.5824C0.9392 81.7008 0 79.44 0 76.8V9.6C0 6.96 0.9392 4.6992 2.8176 2.8176C4.6992 0.9392 6.96 0 9.6 0H76.8C79.44 0 81.7008 0.9392 83.5824 2.8176C85.4608 4.6992 86.4 6.96 86.4 9.6V33.6C83.92 30.48 81.12 28.0992 78 26.4576C74.88 24.8192 71.28 24 67.2 24C67.2 22.64 66.7392 21.4992 65.8176 20.5776C64.8992 19.6592 63.76 19.2 62.4 19.2H24C22.64 19.2 21.4992 19.6592 20.5776 20.5776C19.6592 21.4992 19.2 22.64 19.2 24C19.2 25.36 19.6592 26.4992 20.5776 27.4176C21.4992 28.3392 22.64 28.8 24 28.8H52.8C51.2 30.08 49.76 31.52 48.48 33.12C47.2 34.72 46.12 36.48 45.24 38.4H24C22.64 38.4 21.4992 38.8592 20.5776 39.7776C19.6592 40.6992 19.2 41.84 19.2 43.2C19.2 44.56 19.6592 45.6992 20.5776 46.6176C21.4992 47.5392 22.64 48 24 48H43.2C43.2 49.68 43.3808 51.32 43.7424 52.92C44.1008 54.52 44.6 56.08 45.24 57.6H24C22.64 57.6 21.4992 58.0592 20.5776 58.9776C19.6592 59.8992 19.2 61.04 19.2 62.4C19.2 63.76 19.6592 64.8992 20.5776 65.8176C21.4992 66.7392 22.64 67.2 24 67.2H35.76C33.6 69.04 31.8992 71.2592 30.6576 73.8576C29.4192 76.4592 28.8 79.2 28.8 82.08ZM43.2 96C41.84 96 40.7008 95.5392 39.7824 94.6176C38.8608 93.6992 38.4 92.56 38.4 91.2V82.08C38.4 80.4 38.8 78.8192 39.6 77.3376C40.4 75.8592 41.52 74.68 42.96 73.8C45.52 72.28 47.68 71.2192 49.44 70.6176C51.2 70.0192 53.56 69.48 56.52 69C57.48 68.84 58.44 68.8592 59.4 69.0576C60.36 69.2592 61.16 69.72 61.8 70.44L67.2 76.8L72.48 70.44C73.12 69.64 73.92 69.16 74.88 69C75.84 68.84 76.8 68.84 77.76 69C80.72 69.48 83.08 70.0192 84.84 70.6176C86.6 71.2192 88.76 72.28 91.32 73.8C92.76 74.68 93.9008 75.8592 94.7424 77.3376C95.5808 78.8192 96 80.4 96 82.08V91.2C96 92.56 95.5392 93.6992 94.6176 94.6176C93.6992 95.5392 92.56 96 91.2 96H43.2Z" fill="#2C98A0"/>
</svg>
