<svg width="24" height="24" viewBox="0 0 24 24" fill="none" xmlns="http://www.w3.org/2000/svg">
<path d="M17.4 18.6V21C17.4 21.16 17.46 21.3 17.58 21.42C17.7 21.54 17.84 21.6 18 21.6C18.16 21.6 18.3 21.54 18.42 21.42C18.54 21.3 18.6 21.16 18.6 21V18.6H21C21.16 18.6 21.3 18.54 21.42 18.42C21.54 18.3 21.6 18.16 21.6 18C21.6 17.84 21.54 17.7 21.42 17.58C21.3 17.46 21.16 17.4 21 17.4H18.6V15C18.6 14.84 18.54 14.7 18.42 14.58C18.3 14.46 18.16 14.4 18 14.4C17.84 14.4 17.7 14.46 17.58 14.58C17.46 14.7 17.4 14.84 17.4 15V17.4H15C14.84 17.4 14.7 17.46 14.58 17.58C14.46 17.7 14.4 17.84 14.4 18C14.4 18.16 14.46 18.3 14.58 18.42C14.7 18.54 14.84 18.6 15 18.6H17.4ZM18 24C16.34 24 14.9252 23.4152 13.7556 22.2456C12.5852 21.0752 12 19.66 12 18C12 16.34 12.5852 14.9248 13.7556 13.7544C14.9252 12.5848 16.34 12 18 12C19.66 12 21.0752 12.5848 22.2456 13.7544C23.4152 14.9248 24 16.34 24 18C24 19.66 23.4152 21.0752 22.2456 22.2456C21.0752 23.4152 19.66 24 18 24ZM6 7.2H15.6C15.94 7.2 16.2248 7.0848 16.4544 6.8544C16.6848 6.6248 16.8 6.34 16.8 6C16.8 5.66 16.6848 5.3748 16.4544 5.1444C16.2248 4.9148 15.94 4.8 15.6 4.8H6C5.66 4.8 5.3748 4.9148 5.1444 5.1444C4.9148 5.3748 4.8 5.66 4.8 6C4.8 6.34 4.9148 6.6248 5.1444 6.8544C5.3748 7.0848 5.66 7.2 6 7.2ZM10.41 21.6H2.4C1.74 21.6 1.1748 21.3652 0.7044 20.8956C0.2348 20.4252 0 19.86 0 19.2V2.4C0 1.74 0.2348 1.1748 0.7044 0.7044C1.1748 0.2348 1.74 0 2.4 0H19.2C19.86 0 20.4252 0.2348 20.8956 0.7044C21.3652 1.1748 21.6 1.74 21.6 2.4V10.44C21.02 10.16 20.4352 9.95 19.8456 9.81C19.2552 9.67 18.64 9.6 18 9.6C17.78 9.6 17.5752 9.6048 17.3856 9.6144C17.1952 9.6248 17 9.65 16.8 9.69C16.62 9.65 16.42 9.6248 16.2 9.6144C15.98 9.6048 15.78 9.6 15.6 9.6H6C5.66 9.6 5.3748 9.7148 5.1444 9.9444C4.9148 10.1748 4.8 10.46 4.8 10.8C4.8 11.14 4.9148 11.4248 5.1444 11.6544C5.3748 11.8848 5.66 12 6 12H12.15C11.79 12.34 11.4648 12.71 11.1744 13.11C10.8848 13.51 10.63 13.94 10.41 14.4H6C5.66 14.4 5.3748 14.5148 5.1444 14.7444C4.9148 14.9748 4.8 15.26 4.8 15.6C4.8 15.94 4.9148 16.2248 5.1444 16.4544C5.3748 16.6848 5.66 16.8 6 16.8H9.69C9.65 17 9.6248 17.1952 9.6144 17.3856C9.6048 17.5752 9.6 17.78 9.6 18C9.6 18.66 9.66 19.2752 9.78 19.8456C9.9 20.4152 10.11 21 10.41 21.6Z" fill="#9E9E9E"/>
</svg>
