<svg width="24" height="24" viewBox="0 0 24 24" fill="none" xmlns="http://www.w3.org/2000/svg">
<path d="M12.84 11.04L11.1 9.33C10.86 9.11 10.58 9 10.26 9C9.94 9 9.66 9.12 9.42 9.36C9.2 9.58 9.09 9.86 9.09 10.2C9.09 10.54 9.2 10.82 9.42 11.04L12 13.62C12.22 13.84 12.5 13.95 12.84 13.95C13.18 13.95 13.46 13.84 13.68 13.62L18.78 8.52C19.02 8.28 19.14 7.9948 19.14 7.6644C19.14 7.3348 19.02 7.05 18.78 6.81C18.54 6.57 18.2552 6.45 17.9256 6.45C17.5952 6.45 17.31 6.57 17.07 6.81L12.84 11.04ZM7.2 19.2C6.54 19.2 5.9752 18.9652 5.5056 18.4956C5.0352 18.0252 4.8 17.46 4.8 16.8V2.4C4.8 1.74 5.0352 1.1748 5.5056 0.7044C5.9752 0.2348 6.54 0 7.2 0H21.6C22.26 0 22.8252 0.2348 23.2956 0.7044C23.7652 1.1748 24 1.74 24 2.4V16.8C24 17.46 23.7652 18.0252 23.2956 18.4956C22.8252 18.9652 22.26 19.2 21.6 19.2H7.2ZM2.4 24C1.74 24 1.1752 23.7652 0.7056 23.2956C0.2352 22.8252 0 22.26 0 21.6V6C0 5.66 0.1152 5.3748 0.3456 5.1444C0.5752 4.9148 0.86 4.8 1.2 4.8C1.54 4.8 1.8252 4.9148 2.0556 5.1444C2.2852 5.3748 2.4 5.66 2.4 6V21.6H18C18.34 21.6 18.6248 21.7152 18.8544 21.9456C19.0848 22.1752 19.2 22.46 19.2 22.8C19.2 23.14 19.0848 23.4248 18.8544 23.6544C18.6248 23.8848 18.34 24 18 24H2.4Z" fill="#9E9E9E"/>
</svg>
